<svg width="38" height="38" viewBox="0 0 38 38" fill="none" xmlns="http://www.w3.org/2000/svg">
<g filter="url(#filter0_dddi_1083_50505)">
<g clip-path="url(#clip0_1083_50505)">
<path d="M3 14.8C3 10.3196 3 8.07937 3.87195 6.36808C4.63893 4.86278 5.86278 3.63893 7.36808 2.87195C9.07937 2 11.3196 2 15.8 2H22.2C26.6804 2 28.9206 2 30.6319 2.87195C32.1372 3.63893 33.3611 4.86278 34.1281 6.36808C35 8.07937 35 10.3196 35 14.8V21.2C35 25.6804 35 27.9206 34.1281 29.6319C33.3611 31.1372 32.1372 32.3611 30.6319 33.1281C28.9206 34 26.6804 34 22.2 34H15.8C11.3196 34 9.07937 34 7.36808 33.1281C5.86278 32.3611 4.63893 31.1372 3.87195 29.6319C3 27.9206 3 25.6804 3 21.2V14.8Z" fill="white"/>
<path d="M3 14.8C3 10.3196 3 8.07937 3.87195 6.36808C4.63893 4.86278 5.86278 3.63893 7.36808 2.87195C9.07937 2 11.3196 2 15.8 2H22.2C26.6804 2 28.9206 2 30.6319 2.87195C32.1372 3.63893 33.3611 4.86278 34.1281 6.36808C35 8.07937 35 10.3196 35 14.8V21.2C35 25.6804 35 27.9206 34.1281 29.6319C33.3611 31.1372 32.1372 32.3611 30.6319 33.1281C28.9206 34 26.6804 34 22.2 34H15.8C11.3196 34 9.07937 34 7.36808 33.1281C5.86278 32.3611 4.63893 31.1372 3.87195 29.6319C3 27.9206 3 25.6804 3 21.2V14.8Z" fill="url(#paint0_linear_1083_50505)" fill-opacity="0.2"/>
<g clip-path="url(#clip1_1083_50505)">
<g filter="url(#filter1_diiii_1083_50505)">
<path d="M28.122 2H9.87805C5.75612 2 2.41463 5.24321 2.41463 9.2439V26.9512C2.41463 30.9519 5.75612 34.1951 9.87805 34.1951H28.122C32.2439 34.1951 35.5854 30.9519 35.5854 26.9512V9.2439C35.5854 5.24321 32.2439 2 28.122 2Z" fill="url(#paint1_linear_1083_50505)"/>
<path d="M28.122 2.13416H9.87805C5.83245 2.13416 2.55285 5.3173 2.55285 9.24391V26.9512C2.55285 30.8778 5.83245 34.061 9.87805 34.061H28.122C32.1676 34.061 35.4472 30.8778 35.4472 26.9512V9.24391C35.4472 5.3173 32.1676 2.13416 28.122 2.13416Z" stroke="url(#paint2_linear_1083_50505)" stroke-width="2"/>
<path d="M20.0874 13.9597C20.0874 13.9597 21.1745 12.3438 22.1934 11.8358C22.9801 11.4434 23.8541 11.1294 24.9651 11.1294C25.9947 11.1294 26.8953 11.3401 27.6625 11.761C28.4313 12.1834 29.0278 12.7825 29.4544 13.5587C29.8817 14.3353 30.0953 15.2637 30.0953 16.3457V24.8108C30.0953 24.9481 29.9766 25.0596 29.8301 25.0596H26.3053C26.1589 25.0596 26.0408 24.9481 26.0408 24.8113V17.0084C26.0408 16.1661 25.8081 15.5039 25.3407 15.0214C24.8745 14.5379 24.2298 14.2956 23.4106 14.2956C22.8645 14.2956 22.3793 14.4096 21.9574 14.6371C21.6115 14.8234 21.3264 15.0748 21.1062 15.3909C21.0548 15.4606 21.0092 15.5329 20.9658 15.6093C20.9576 15.6229 20.9511 15.6357 20.9441 15.6499L20.7413 15.9721L20.5911 16.2083C19.6987 17.6141 18.8393 19.0391 18.0136 20.4805C17.4643 21.4394 17.1417 21.9656 16.8327 22.4405C16.4682 23.0003 15.6783 23.9043 15.0282 24.3293C14.2659 24.829 13.3322 25.0738 12.2251 25.0662C11.2426 25.0662 10.3762 24.857 9.62739 24.4406C8.87753 24.0233 8.29359 23.4284 7.87719 22.6517C7.46132 21.8751 7.25203 20.9461 7.25203 19.8641V11.3783C7.25203 11.2409 7.37077 11.1294 7.51716 11.1294H11.042C11.1884 11.1294 11.3071 11.2409 11.3071 11.3783V19.2238C11.3071 20.0331 11.537 20.6754 11.9962 21.1508C12.456 21.6252 13.0682 21.8587 13.8332 21.8496C14.3196 21.8496 14.7712 21.7443 15.1887 21.5336C15.6051 21.3228 15.9466 21.0073 16.2102 20.5858L16.6076 19.9603L18.3892 16.9015" fill="url(#paint3_linear_1083_50505)"/>
</g>
</g>
</g>
<path d="M15.7998 2.09961H22.2002C24.442 2.09961 26.1173 2.1004 27.4463 2.20898C28.7741 2.31747 29.7477 2.53335 30.5869 2.96094C32.0732 3.7183 33.2817 4.92681 34.0391 6.41309C34.4666 7.25227 34.6825 8.22592 34.791 9.55371C34.8996 10.8827 34.9004 12.558 34.9004 14.7998V21.2002C34.9004 23.442 34.8996 25.1173 34.791 26.4463C34.6825 27.7741 34.4666 28.7477 34.0391 29.5869C33.2817 31.0732 32.0732 32.2817 30.5869 33.0391C29.7477 33.4666 28.7741 33.6825 27.4463 33.791C26.1173 33.8996 24.442 33.9004 22.2002 33.9004H15.7998C13.558 33.9004 11.8827 33.8996 10.5537 33.791C9.22592 33.6825 8.25227 33.4666 7.41309 33.0391C5.92681 32.2817 4.7183 31.0732 3.96094 29.5869C3.53335 28.7477 3.31747 27.7741 3.20898 26.4463C3.1004 25.1173 3.09961 23.442 3.09961 21.2002V14.7998C3.09961 12.558 3.1004 10.8827 3.20898 9.55371C3.31747 8.22592 3.53335 7.25227 3.96094 6.41309C4.7183 4.92681 5.92681 3.7183 7.41309 2.96094C8.25227 2.53335 9.22592 2.31747 10.5537 2.20898C11.8827 2.1004 13.558 2.09961 15.7998 2.09961Z" stroke="#0A0D12" stroke-opacity="0.12" stroke-width="0.2"/>
</g>
<defs>
<filter id="filter0_dddi_1083_50505" x="0" y="0" width="38" height="38" filterUnits="userSpaceOnUse" color-interpolation-filters="sRGB">
<feFlood flood-opacity="0" result="BackgroundImageFix"/>
<feColorMatrix in="SourceAlpha" type="matrix" values="0 0 0 0 0 0 0 0 0 0 0 0 0 0 0 0 0 0 127 0" result="hardAlpha"/>
<feOffset dy="1"/>
<feGaussianBlur stdDeviation="1"/>
<feColorMatrix type="matrix" values="0 0 0 0 0.0392157 0 0 0 0 0.0509804 0 0 0 0 0.0705882 0 0 0 0.06 0"/>
<feBlend mode="normal" in2="BackgroundImageFix" result="effect1_dropShadow_1083_50505"/>
<feColorMatrix in="SourceAlpha" type="matrix" values="0 0 0 0 0 0 0 0 0 0 0 0 0 0 0 0 0 0 127 0" result="hardAlpha"/>
<feOffset dy="1"/>
<feGaussianBlur stdDeviation="1.5"/>
<feColorMatrix type="matrix" values="0 0 0 0 0.0392157 0 0 0 0 0.0509804 0 0 0 0 0.0705882 0 0 0 0.1 0"/>
<feBlend mode="normal" in2="effect1_dropShadow_1083_50505" result="effect2_dropShadow_1083_50505"/>
<feColorMatrix in="SourceAlpha" type="matrix" values="0 0 0 0 0 0 0 0 0 0 0 0 0 0 0 0 0 0 127 0" result="hardAlpha"/>
<feMorphology radius="0.5" operator="erode" in="SourceAlpha" result="effect3_dropShadow_1083_50505"/>
<feOffset dy="1"/>
<feGaussianBlur stdDeviation="0.5"/>
<feComposite in2="hardAlpha" operator="out"/>
<feColorMatrix type="matrix" values="0 0 0 0 0.0392157 0 0 0 0 0.0509804 0 0 0 0 0.0705882 0 0 0 0.13 0"/>
<feBlend mode="normal" in2="effect2_dropShadow_1083_50505" result="effect3_dropShadow_1083_50505"/>
<feBlend mode="normal" in="SourceGraphic" in2="effect3_dropShadow_1083_50505" result="shape"/>
<feColorMatrix in="SourceAlpha" type="matrix" values="0 0 0 0 0 0 0 0 0 0 0 0 0 0 0 0 0 0 127 0" result="hardAlpha"/>
<feOffset dy="-0.5"/>
<feGaussianBlur stdDeviation="0.25"/>
<feComposite in2="hardAlpha" operator="arithmetic" k2="-1" k3="1"/>
<feColorMatrix type="matrix" values="0 0 0 0 0.0392157 0 0 0 0 0.0509804 0 0 0 0 0.0705882 0 0 0 0.1 0"/>
<feBlend mode="normal" in2="shape" result="effect4_innerShadow_1083_50505"/>
</filter>
<filter id="filter1_diiii_1083_50505" x="-2.44715" y="-1.86584" width="42.8943" height="43.9268" filterUnits="userSpaceOnUse" color-interpolation-filters="sRGB">
<feFlood flood-opacity="0" result="BackgroundImageFix"/>
<feColorMatrix in="SourceAlpha" type="matrix" values="0 0 0 0 0 0 0 0 0 0 0 0 0 0 0 0 0 0 127 0" result="hardAlpha"/>
<feOffset dy="3"/>
<feGaussianBlur stdDeviation="2"/>
<feComposite in2="hardAlpha" operator="out"/>
<feColorMatrix type="matrix" values="0 0 0 0 0.164706 0 0 0 0 0.164706 0 0 0 0 0.164706 0 0 0 0.14 0"/>
<feBlend mode="normal" in2="BackgroundImageFix" result="effect1_dropShadow_1083_50505"/>
<feBlend mode="normal" in="SourceGraphic" in2="effect1_dropShadow_1083_50505" result="shape"/>
<feColorMatrix in="SourceAlpha" type="matrix" values="0 0 0 0 0 0 0 0 0 0 0 0 0 0 0 0 0 0 127 0" result="hardAlpha"/>
<feOffset dy="1"/>
<feGaussianBlur stdDeviation="0.5"/>
<feComposite in2="hardAlpha" operator="arithmetic" k2="-1" k3="1"/>
<feColorMatrix type="matrix" values="0 0 0 0 0.162923 0 0 0 0 0.162923 0 0 0 0 0.162923 0 0 0 0.08 0"/>
<feBlend mode="normal" in2="shape" result="effect2_innerShadow_1083_50505"/>
<feColorMatrix in="SourceAlpha" type="matrix" values="0 0 0 0 0 0 0 0 0 0 0 0 0 0 0 0 0 0 127 0" result="hardAlpha"/>
<feOffset dy="-3"/>
<feGaussianBlur stdDeviation="1.5"/>
<feComposite in2="hardAlpha" operator="arithmetic" k2="-1" k3="1"/>
<feColorMatrix type="matrix" values="0 0 0 0 0 0 0 0 0 0 0 0 0 0 0 0 0 0 0.1 0"/>
<feBlend mode="normal" in2="effect2_innerShadow_1083_50505" result="effect3_innerShadow_1083_50505"/>
<feColorMatrix in="SourceAlpha" type="matrix" values="0 0 0 0 0 0 0 0 0 0 0 0 0 0 0 0 0 0 127 0" result="hardAlpha"/>
<feOffset dy="3"/>
<feGaussianBlur stdDeviation="1.5"/>
<feComposite in2="hardAlpha" operator="arithmetic" k2="-1" k3="1"/>
<feColorMatrix type="matrix" values="0 0 0 0 1 0 0 0 0 1 0 0 0 0 1 0 0 0 0.1 0"/>
<feBlend mode="normal" in2="effect3_innerShadow_1083_50505" result="effect4_innerShadow_1083_50505"/>
<feColorMatrix in="SourceAlpha" type="matrix" values="0 0 0 0 0 0 0 0 0 0 0 0 0 0 0 0 0 0 127 0" result="hardAlpha"/>
<feOffset/>
<feGaussianBlur stdDeviation="2"/>
<feComposite in2="hardAlpha" operator="arithmetic" k2="-1" k3="1"/>
<feColorMatrix type="matrix" values="0 0 0 0 0 0 0 0 0 0 0 0 0 0 0 0 0 0 0.2 0"/>
<feBlend mode="normal" in2="effect4_innerShadow_1083_50505" result="effect5_innerShadow_1083_50505"/>
</filter>
<linearGradient id="paint0_linear_1083_50505" x1="19" y1="2" x2="19" y2="34" gradientUnits="userSpaceOnUse">
<stop stop-color="white"/>
<stop offset="1" stop-color="#0A0D12"/>
</linearGradient>
<linearGradient id="paint1_linear_1083_50505" x1="38.6951" y1="2" x2="6.77678" y2="32.4624" gradientUnits="userSpaceOnUse">
<stop stop-color="#22CCEE"/>
<stop offset="1" stop-color="#004EEB"/>
</linearGradient>
<linearGradient id="paint2_linear_1083_50505" x1="19" y1="2.00001" x2="19" y2="34.1951" gradientUnits="userSpaceOnUse">
<stop stop-color="white" stop-opacity="0.12"/>
<stop offset="1" stop-color="white" stop-opacity="0"/>
</linearGradient>
<linearGradient id="paint3_linear_1083_50505" x1="18.6737" y1="11.1294" x2="18.6737" y2="25.0664" gradientUnits="userSpaceOnUse">
<stop stop-color="white"/>
<stop offset="1" stop-color="white" stop-opacity="0.8"/>
</linearGradient>
<clipPath id="clip0_1083_50505">
<path d="M3 14.8C3 10.3196 3 8.07937 3.87195 6.36808C4.63893 4.86278 5.86278 3.63893 7.36808 2.87195C9.07937 2 11.3196 2 15.8 2H22.2C26.6804 2 28.9206 2 30.6319 2.87195C32.1372 3.63893 33.3611 4.86278 34.1281 6.36808C35 8.07937 35 10.3196 35 14.8V21.2C35 25.6804 35 27.9206 34.1281 29.6319C33.3611 31.1372 32.1372 32.3611 30.6319 33.1281C28.9206 34 26.6804 34 22.2 34H15.8C11.3196 34 9.07937 34 7.36808 33.1281C5.86278 32.3611 4.63893 31.1372 3.87195 29.6319C3 27.9206 3 25.6804 3 21.2V14.8Z" fill="white"/>
</clipPath>
<clipPath id="clip1_1083_50505">
<rect width="34" height="33" fill="white" transform="translate(2 2)"/>
</clipPath>
</defs>
</svg>
