<svg preserveAspectRatio="none" width="100%" height="100%" overflow="visible" style="display: block;" viewBox="0 0 18 18" fill="none" xmlns="http://www.w3.org/2000/svg">
<g id="Icon wrap">
<path id="Icon" d="M14.7088 10.344C13.586 10.344 12.1808 10.5399 11.7211 10.6088C9.81836 8.62181 9.27703 7.4924 9.15526 7.19128C9.32028 6.76729 9.89443 5.15664 9.97601 3.08803C10.0162 2.05234 9.79746 1.27845 9.32557 0.787865C8.85449 0.29809 8.2843 0.26 8.12079 0.26C7.54746 0.26 6.58568 0.549916 6.58568 2.49136C6.58568 4.17587 7.37106 5.96333 7.58816 6.42517C6.44435 9.75564 5.21634 12.0355 4.95557 12.5044C0.359419 14.2349 0 15.9081 0 16.3823C0 17.2345 0.60689 17.7432 1.62343 17.7432C4.0932 17.7432 6.34703 13.5967 6.71969 12.8767C8.47382 12.1778 10.8216 11.7449 11.4184 11.6416C13.1304 13.2724 15.1104 13.7075 15.9326 13.7075C16.5512 13.7075 17.9999 13.7075 17.9999 12.218C18 10.8348 16.2271 10.344 14.7088 10.344ZM14.5898 11.3219C15.9238 11.3219 16.2764 11.763 16.2764 11.9963C16.2764 12.1427 16.2208 12.6203 15.5058 12.6203C14.8646 12.6203 13.7575 12.2497 12.6683 11.4456C13.1225 11.3859 13.7947 11.3219 14.5898 11.3219ZM8.05076 1.20785C8.17241 1.20785 8.25248 1.24692 8.3185 1.33849C8.70219 1.87088 8.39282 3.6105 8.01627 4.97182C7.65279 3.80455 7.38 2.01349 7.76381 1.38337C7.83883 1.26039 7.92459 1.20785 8.05076 1.20785ZM7.40288 11.6277C7.88586 10.652 8.42719 9.22998 8.72204 8.42573C9.3121 9.41335 10.1057 10.3303 10.5647 10.8275C9.13558 11.1287 8.0543 11.4298 7.40288 11.6277ZM0.9594 16.5125C0.927581 16.4747 0.922877 16.3952 0.946858 16.2997C0.997142 16.0995 1.38141 15.1074 4.16079 13.8641C3.76281 14.491 3.14065 15.3867 2.45717 16.0558C1.97605 16.5062 1.60142 16.7345 1.34367 16.7345C1.25146 16.7345 1.12442 16.7094 0.9594 16.5125Z" fill="var(--fill-0, #D92D20)"/>
</g>
</svg>
