<svg preserveAspectRatio="none" width="100%" height="100%" overflow="visible" style="display: block;" viewBox="0 0 16 16" fill="none" xmlns="http://www.w3.org/2000/svg">
<g id="Icon wrap">
<path id="Icon" d="M12.6666 14H13.3402C13.9876 14 14.3114 14 14.4898 13.865C14.6453 13.7474 14.7415 13.5677 14.7531 13.3731C14.7664 13.1497 14.5869 12.8804 14.2277 12.3417L12.2208 9.33128C11.9241 8.88616 11.7757 8.66359 11.5887 8.58604C11.4252 8.51823 11.2414 8.51823 11.0779 8.58604C10.8909 8.66359 10.7425 8.88616 10.4458 9.33128L9.94964 10.0755M12.6666 14L7.54363 6.60012C7.249 6.17455 7.10169 5.96176 6.91768 5.88696C6.7567 5.82152 6.57654 5.82152 6.41557 5.88696C6.23156 5.96176 6.08425 6.17455 5.78962 6.60012L1.82542 12.3262C1.45007 12.8684 1.2624 13.1394 1.27308 13.3649C1.28239 13.5612 1.37787 13.7435 1.53401 13.8629C1.71329 14 2.043 14 2.70243 14H12.6666ZM14 4C14 5.10457 13.1045 6 12 6C10.8954 6 9.99996 5.10457 9.99996 4C9.99996 2.89543 10.8954 2 12 2C13.1045 2 14 2.89543 14 4Z" stroke="var(--stroke-0, #414651)" stroke-width="1.5" stroke-linecap="round" stroke-linejoin="round"/>
</g>
</svg>
