<svg preserveAspectRatio="none" width="100%" height="100%" overflow="visible" style="display: block;" viewBox="0 0 18 18" fill="none" xmlns="http://www.w3.org/2000/svg">
<g id="Icon wrap" clip-path="url(#clip0_0_67)">
<path id="Icon" d="M1.5 9H16.5M1.5 5.25H5.25M12.75 5.25H16.5M1.5 12.75H5.25M12.75 12.75H16.5M5.25 16.5V1.5M12.75 16.5V1.5M5.1 16.5H12.9C14.1601 16.5 14.7902 16.5 15.2715 16.2548C15.6948 16.039 16.0391 15.6948 16.2548 15.2715C16.5 14.7902 16.5 14.1601 16.5 12.9V5.1C16.5 3.83988 16.5 3.20982 16.2548 2.72852C16.0391 2.30516 15.6948 1.96095 15.2715 1.74524C14.7902 1.5 14.1601 1.5 12.9 1.5H5.1C3.83989 1.5 3.20983 1.5 2.72853 1.74524C2.30516 1.96095 1.96095 2.30516 1.74524 2.72852C1.5 3.20982 1.5 3.83988 1.5 5.1V12.9C1.5 14.1601 1.5 14.7902 1.74524 15.2715C1.96095 15.6948 2.30516 16.039 2.72853 16.2548C3.20983 16.5 3.83989 16.5 5.1 16.5Z" stroke="var(--stroke-0, #155EEF)" stroke-width="1.5" stroke-linecap="round" stroke-linejoin="round"/>
</g>
<defs>
<clipPath id="clip0_0_67">
<rect width="18" height="18" fill="white"/>
</clipPath>
</defs>
</svg>
