<svg preserveAspectRatio="none" width="100%" height="100%" overflow="visible" style="display: block;" viewBox="0 0 18 18" fill="none" xmlns="http://www.w3.org/2000/svg">
<g id="Icon wrap">
<path id="Icon" d="M14.25 15.75H15.0077C15.7361 15.75 16.1003 15.75 16.3011 15.5981C16.4759 15.4658 16.5842 15.2636 16.5972 15.0447C16.6122 14.7934 16.4102 14.4904 16.0062 13.8844L13.7484 10.4977C13.4146 9.99693 13.2477 9.74654 13.0373 9.65929C12.8533 9.58301 12.6466 9.58301 12.4627 9.65929C12.2523 9.74654 12.0853 9.99693 11.7515 10.4977L11.1934 11.3349M14.25 15.75L8.48659 7.42513C8.15514 6.94636 7.98941 6.70698 7.7824 6.62283C7.6013 6.54921 7.39862 6.54921 7.21753 6.62283C7.01052 6.70698 6.84479 6.94636 6.51333 7.42513L2.05361 13.8669C1.63134 14.4769 1.42021 14.7819 1.43223 15.0355C1.4427 15.2564 1.55011 15.4614 1.72577 15.5957C1.92747 15.75 2.29839 15.75 3.04024 15.75H14.25ZM15.75 4.5C15.75 5.74264 14.7426 6.75 13.5 6.75C12.2573 6.75 11.25 5.74264 11.25 4.5C11.25 3.25736 12.2573 2.25 13.5 2.25C14.7426 2.25 15.75 3.25736 15.75 4.5Z" stroke="var(--stroke-0, #7F56D9)" stroke-width="1.5" stroke-linecap="round" stroke-linejoin="round"/>
</g>
</svg>
