<svg preserveAspectRatio="none" width="100%" height="100%" overflow="visible" style="display: block;" viewBox="0 0 18 18" fill="none" xmlns="http://www.w3.org/2000/svg">
<g id="Icon wrap" clip-path="url(#clip0_0_36)">
<g id="Icon">
<path d="M9.00005 16.5C13.1422 16.5 16.5 13.1421 16.5 9C16.5 4.85786 13.1422 1.5 9.00005 1.5C4.85791 1.5 1.50005 4.85786 1.50005 9C1.50005 13.1421 4.85791 16.5 9.00005 16.5Z" stroke="var(--stroke-0, #155EEF)" stroke-width="1.5" stroke-linecap="round" stroke-linejoin="round"/>
<path d="M7.12505 6.724C7.12505 6.36604 7.12505 6.18705 7.19985 6.08713C7.26504 6.00006 7.36483 5.94558 7.47333 5.93783C7.59783 5.92893 7.74839 6.02572 8.0495 6.21929L11.5899 8.49529C11.8512 8.66326 11.9819 8.74725 12.027 8.85404C12.0664 8.94735 12.0664 9.05265 12.027 9.14596C11.9819 9.25275 11.8512 9.33674 11.5899 9.50471L8.0495 11.7807C7.74839 11.9743 7.59783 12.0711 7.47333 12.0622C7.36483 12.0544 7.26504 11.9999 7.19985 11.9129C7.12505 11.8129 7.12505 11.634 7.12505 11.276V6.724Z" stroke="var(--stroke-0, #155EEF)" stroke-width="1.5" stroke-linecap="round" stroke-linejoin="round"/>
</g>
</g>
<defs>
<clipPath id="clip0_0_36">
<rect width="18" height="18" fill="white"/>
</clipPath>
</defs>
</svg>
