<svg preserveAspectRatio="none" width="100%" height="100%" overflow="visible" style="display: block;" viewBox="0 0 16 16" fill="none" xmlns="http://www.w3.org/2000/svg">
<g id="Icon wrap" clip-path="url(#clip0_0_46)">
<path id="Icon" d="M1.33333 8H14.6667M1.33333 4.66667H4.66667M11.3333 4.66667H14.6667M1.33333 11.3333H4.66667M11.3333 11.3333H14.6667M4.66667 14.6667V1.33333M11.3333 14.6667V1.33333M4.53333 14.6667H11.4667C12.5868 14.6667 13.1468 14.6667 13.5746 14.4487C13.951 14.2569 14.2569 13.951 14.4487 13.5746C14.6667 13.1468 14.6667 12.5868 14.6667 11.4667V4.53333C14.6667 3.41323 14.6667 2.85318 14.4487 2.42535C14.2569 2.04903 13.951 1.74307 13.5746 1.55132C13.1468 1.33333 12.5868 1.33333 11.4667 1.33333H4.53333C3.41323 1.33333 2.85318 1.33333 2.42535 1.55132C2.04903 1.74307 1.74307 2.04903 1.55132 2.42535C1.33333 2.85318 1.33333 3.41323 1.33333 4.53333V11.4667C1.33333 12.5868 1.33333 13.1468 1.55132 13.5746C1.74307 13.951 2.04903 14.2569 2.42535 14.4487C2.85318 14.6667 3.41323 14.6667 4.53333 14.6667Z" stroke="var(--stroke-0, white)" stroke-width="1.5" stroke-linecap="round" stroke-linejoin="round"/>
</g>
<defs>
<clipPath id="clip0_0_46">
<rect width="16" height="16" fill="white"/>
</clipPath>
</defs>
</svg>
