<svg preserveAspectRatio="none" width="100%" height="100%" overflow="visible" style="display: block;" viewBox="0 0 18 18" fill="none" xmlns="http://www.w3.org/2000/svg">
<g id="Icon wrap">
<path id="Icon" d="M5.84998 13.5V4.7666C5.84998 4.40545 5.84998 4.22487 5.91568 4.07841C5.97359 3.94931 6.06685 3.83922 6.18467 3.76087C6.31834 3.67199 6.49646 3.6423 6.8527 3.58293L13.4527 2.48293C13.9334 2.4028 14.1738 2.36274 14.3611 2.43232C14.5255 2.49338 14.6633 2.61011 14.7505 2.76222C14.85 2.93556 14.85 3.17924 14.85 3.6666V12M5.84998 13.5C5.84998 14.7427 4.84262 15.75 3.59998 15.75C2.35733 15.75 1.34998 14.7427 1.34998 13.5C1.34998 12.2574 2.35733 11.25 3.59998 11.25C4.84262 11.25 5.84998 12.2574 5.84998 13.5ZM14.85 12C14.85 13.2427 13.8426 14.25 12.6 14.25C11.3573 14.25 10.35 13.2427 10.35 12C10.35 10.7574 11.3573 9.75005 12.6 9.75005C13.8426 9.75005 14.85 10.7574 14.85 12Z" stroke="var(--stroke-0, #DD2590)" stroke-width="1.5" stroke-linecap="round" stroke-linejoin="round"/>
</g>
</svg>
