<svg preserveAspectRatio="none" width="100%" height="100%" overflow="visible" style="display: block;" viewBox="0 0 16 16" fill="none" xmlns="http://www.w3.org/2000/svg">
<g id="Icon wrap">
<path id="Icon" d="M5.19998 12V4.23698C5.19998 3.91595 5.19998 3.75544 5.25838 3.62525C5.30986 3.5105 5.39276 3.41264 5.49749 3.343C5.6163 3.26399 5.77463 3.2376 6.09129 3.18482L11.958 2.20704C12.3853 2.13583 12.5989 2.10022 12.7654 2.16206C12.9116 2.21634 13.034 2.3201 13.1116 2.45531C13.2 2.60939 13.2 2.82599 13.2 3.2592V10.6667M5.19998 12C5.19998 13.1046 4.30455 14 3.19998 14C2.09541 14 1.19998 13.1046 1.19998 12C1.19998 10.8955 2.09541 10 3.19998 10C4.30455 10 5.19998 10.8955 5.19998 12ZM13.2 10.6667C13.2 11.7713 12.3045 12.6667 11.2 12.6667C10.0954 12.6667 9.19998 11.7713 9.19998 10.6667C9.19998 9.56214 10.0954 8.66671 11.2 8.66671C12.3045 8.66671 13.2 9.56214 13.2 10.6667Z" stroke="var(--stroke-0, white)" stroke-width="1.5" stroke-linecap="round" stroke-linejoin="round"/>
</g>
</svg>
