<svg preserveAspectRatio="none" width="100%" height="100%" overflow="visible" style="display: block;" viewBox="0 0 32 40" fill="none" xmlns="http://www.w3.org/2000/svg">
<g id="Page">
<g id="Page background wrap">
<mask id="mask0_0_41" style="mask-type:alpha" maskUnits="userSpaceOnUse" x="0" y="0" width="32" height="40">
<path id="Mask" d="M0 4C0 1.79086 1.79086 0 4 0H20L32 12V36C32 38.2091 30.2091 40 28 40H4C1.79086 40 0 38.2091 0 36V4Z" fill="url(#paint0_linear_0_41)"/>
</mask>
<g mask="url(#mask0_0_41)">
<path id="Page background" d="M0 4C0 1.79086 1.79086 0 4 0H20L32 12V36C32 38.2091 30.2091 40 28 40H4C1.79086 40 0 38.2091 0 36V4Z" fill="var(--fill-0, #F5F5F5)"/>
</g>
</g>
<path id="Earmark" d="M20 0L32 12H24C21.7909 12 20 10.2091 20 8V0Z" fill="var(--fill-0, #E9EAEB)"/>
</g>
<defs>
<linearGradient id="paint0_linear_0_41" x1="16" y1="0" x2="16" y2="40" gradientUnits="userSpaceOnUse">
<stop stop-opacity="0.4"/>
<stop offset="1"/>
</linearGradient>
</defs>
</svg>
