<svg preserveAspectRatio="xMidYMid meet" width="36" height="80" overflow="visible" style="display: block;" viewBox="0 0 36 80.3773" fill="none" xmlns="http://www.w3.org/2000/svg">
<g id="Wreath right">
<g id="Vector">
<path fill-rule="evenodd" clip-rule="evenodd" d="M1.81195 78.5003C14.1156 76.7967 23.0727 67.1169 27.1591 53.886C28.8379 48.41 29.0809 42.3366 28.4955 35.9867C27.4132 24.6475 22.2112 14.8018 14.6236 7.62214C14.5905 7.58895 14.5794 7.57789 14.5684 7.61108C14.5463 7.64427 14.48 7.67745 14.4469 7.69958C14.4027 7.7217 14.3917 7.69958 14.4248 7.75489C22.4763 15.1337 27.6451 26.8711 28.2084 38.7302C29.0809 55.6671 20.8638 70.668 8.54912 75.8342C6.48379 76.7082 4.31906 77.3719 2.06597 77.7149C1.91135 77.914 1.823 78.1905 1.81195 78.5003Z" fill="currentColor"/>
<path fill-rule="evenodd" clip-rule="evenodd" d="M32.4826 50.2132C31.4776 51.408 29.8761 52.5806 28.1532 52.127C28.0648 52.2598 27.612 52.9235 27.5457 53.0231C27.4684 53.1448 27.3248 53.2665 27.2144 53.1669C27.1481 53.1227 27.0929 53.0231 27.1591 52.8682C27.4132 52.5585 27.6562 52.2377 27.9433 51.9058C28.4514 49.2176 29.1913 47.4254 30.7376 45.6112C32.5268 43.5314 34.3602 42.6021 35.4978 42.2149C35.6634 42.1707 35.8181 42.1264 35.9837 42.0711C36.0942 43.111 35.6193 44.6266 35.2437 45.4895C34.5148 47.2595 33.7196 48.8082 32.4826 50.2132Z" fill="currentColor"/>
<path fill-rule="evenodd" clip-rule="evenodd" d="M17.6829 12.3459C17.8265 12.4012 18.6659 12.6224 18.7653 12.4565C18.7984 12.4123 18.7543 12.2463 18.6769 12.2353C18.3677 12.2021 18.0253 12.1799 17.7271 12.1136C17.1859 10.4099 15.6839 9.66872 14.3033 9.3811C12.6466 9.04922 10.8243 9.5581 8.8694 9.83467C8.77 9.85679 8.65956 9.86785 8.5712 9.86785C8.60434 9.93423 8.64851 9.97848 8.69269 10.0449C9.50999 11.1622 10.7912 12.191 12.0392 12.6999C12.8786 13.0539 13.8836 13.253 14.8666 13.2198C15.9048 13.1756 16.7773 12.9433 17.6829 12.3459Z" fill="currentColor"/>
<path fill-rule="evenodd" clip-rule="evenodd" d="M14.4469 7.68852C14.3806 7.71064 14.3806 7.68852 14.2591 7.62214C14.0272 7.40089 13.8284 7.26814 13.5965 7.05795C12.2711 7.06901 11.012 6.67076 9.81923 5.87425C9.2891 5.52024 8.75896 5.0888 8.31718 4.56886C7.2569 3.42941 6.40648 1.75896 6.01992 0.232316C5.99783 0.143815 5.98678 0.0885009 5.97574 0C6.07514 0.0442505 6.16349 0.0885022 6.26289 0.132753C8.40553 0.995637 10.4819 1.39389 12.2049 3.06435C13.3756 4.18167 13.983 5.53131 13.74 6.8367C14.0051 7.04688 14.2812 7.24601 14.5353 7.48939C14.6457 7.58895 14.5132 7.68852 14.4469 7.68852Z" fill="currentColor"/>
<path fill-rule="evenodd" clip-rule="evenodd" d="M22.2443 19.4813C22.3879 19.5587 23.1942 19.9791 23.3157 19.8353C23.3709 19.78 23.3488 19.6029 23.2715 19.5698C22.9733 19.4591 22.6198 19.3817 22.3216 19.2489C22.2112 18.0431 21.5375 16.9147 20.2011 16.1404C18.1579 15.0562 15.8385 15.2332 13.6517 15.0452C13.5412 15.0341 13.4418 15.0341 13.3424 15.023C13.3756 15.0894 13.4087 15.1447 13.4308 15.2111C14.1597 16.4722 15.3415 17.8329 16.5454 18.6073C17.3516 19.1494 18.3456 19.5587 19.3396 19.7578C20.3889 19.968 21.2835 19.8463 22.2443 19.4813Z" fill="currentColor"/>
<path fill-rule="evenodd" clip-rule="evenodd" d="M32.9465 38.0886C32.2838 39.582 31.091 41.2193 29.346 41.3299C29.2907 41.4848 28.9705 42.2039 28.9263 42.3145C28.8931 42.4694 28.7827 42.6353 28.6391 42.5689C28.5728 42.5468 28.5066 42.4583 28.5176 42.3034C28.6833 41.9052 28.8931 41.5954 29.0919 41.1861C28.9373 38.4426 29.0919 36.4402 30.1412 34.1835C31.334 31.5838 32.9686 30.0903 33.9736 29.3602C34.0951 29.2495 34.2387 29.1611 34.3823 29.0725C34.6142 30.1346 34.5369 31.7829 34.3933 32.7343C34.1393 34.6592 33.7306 36.3517 32.9465 38.0886Z" fill="currentColor"/>
<path fill-rule="evenodd" clip-rule="evenodd" d="M30.9916 27.0702C30.7044 28.6632 29.9865 30.2673 28.3961 30.9643C28.374 31.1302 28.1973 31.9046 28.1752 32.0263C28.1752 32.1922 28.12 32.3803 27.9654 32.3581C27.9212 32.3471 27.8108 32.3028 27.7997 32.1369C27.866 31.7165 27.9875 31.2408 28.0648 30.7873C27.5347 28.8513 27.2475 27.0813 27.3359 25.1896C27.4794 22.5235 28.4734 20.2114 30.0418 18.3529C30.1633 18.2201 30.2516 18.0763 30.3621 17.9546C30.8038 18.8728 31.091 20.4437 31.1683 21.384C31.334 23.2868 31.3229 25.2006 30.9916 27.0702Z" fill="currentColor"/>
<path fill-rule="evenodd" clip-rule="evenodd" d="M26.9824 17.0143C27.0266 18.6516 26.629 20.488 25.2595 21.55C25.2705 21.7159 25.3037 22.5124 25.3037 22.623C25.3258 22.7779 25.3147 22.966 25.1601 22.9992C25.1049 22.9992 25.0055 22.9881 24.9723 22.8332C24.9392 22.4239 24.9282 21.7933 24.9061 21.3398C23.7353 19.3485 23.1058 17.1802 23.0837 14.7022C23.0395 11.837 23.7464 10.0117 24.3097 8.86115C24.387 8.70628 24.4643 8.5514 24.5416 8.39652C25.1601 9.14878 25.7454 10.5869 26.0105 11.4719C26.5407 13.2641 26.9272 15.1337 26.9824 17.0143Z" fill="currentColor"/>
<path fill-rule="evenodd" clip-rule="evenodd" d="M20.9079 7.83233C21.2614 9.37003 21.162 11.6268 20.0133 12.5561C20.0575 12.7552 20.1569 13.4411 20.168 13.596C20.2121 13.7619 20.2453 13.9168 20.1127 13.9831C20.0575 14.0053 20.0133 14.0053 19.9471 13.8615C19.8698 13.43 19.8477 13.076 19.7814 12.6335C18.1468 10.8856 17.2191 9.15984 16.7 6.80351C16.1809 4.33654 16.2582 2.37846 16.4791 0.995635C16.5012 0.829696 16.5454 0.663758 16.5895 0.486756C18.0253 1.63727 19.0414 3.15285 19.9029 4.87861C20.3668 5.81894 20.7312 6.78138 20.9079 7.83233Z" fill="currentColor"/>
<path fill-rule="evenodd" clip-rule="evenodd" d="M25.9111 28.8955C26.0437 29.0172 26.7726 29.7142 26.9493 29.6257C26.9935 29.5814 27.0266 29.3491 26.9493 29.3049C26.6732 29.0836 26.3198 28.9177 26.0436 28.7075C26.132 27.38 25.8338 26.0303 24.63 24.7692C22.7745 22.966 20.3115 22.3575 18.0695 21.4283C17.9701 21.384 17.8707 21.3287 17.7492 21.2845C17.7713 21.3619 17.7823 21.4504 17.8155 21.5278C18.2573 23.0766 19.1408 24.8798 20.2121 26.0967C20.9079 26.9153 21.8467 27.7008 22.8297 28.2207C23.8568 28.7739 24.8288 28.9509 25.9111 28.8955Z" fill="currentColor"/>
<path fill-rule="evenodd" clip-rule="evenodd" d="M27.4573 39.7037C27.5568 39.8807 28.1421 40.8321 28.3299 40.7879C28.4072 40.7879 28.4845 40.5555 28.4293 40.467C28.1863 40.1462 27.877 39.8918 27.6672 39.5599C28.0427 38.343 27.866 36.5841 26.9603 34.9025C25.5246 32.4466 23.4261 31.2519 21.3939 29.5372C21.3055 29.4487 21.2172 29.3712 21.1178 29.2717C21.1067 29.3491 21.0957 29.4376 21.1067 29.5372C21.1509 31.2187 21.5927 33.3317 22.3769 34.9247C22.8849 35.9977 23.6359 37.0708 24.4974 37.9669C25.392 38.863 26.3419 39.3829 27.4573 39.7037Z" fill="currentColor"/>
<path fill-rule="evenodd" clip-rule="evenodd" d="M26.4413 50.3017C26.5186 50.5119 26.9162 51.6403 27.115 51.6845C27.1812 51.6735 27.3138 51.5075 27.2585 51.3858C27.0929 51.0097 26.9051 50.5783 26.7505 50.1911C27.4353 49.5384 27.6672 47.7241 27.115 45.8213C26.1983 43.0336 24.155 40.9427 22.5094 38.6306C22.4321 38.52 22.3548 38.4094 22.2775 38.2988C22.2554 38.3762 22.2443 38.4647 22.2222 38.5532C21.9351 40.1794 21.9572 42.3366 22.399 44.0956C22.6972 45.2682 23.2162 46.5625 23.89 47.6688C24.5858 48.8414 25.4141 49.649 26.4413 50.3017Z" fill="currentColor"/>
<path fill-rule="evenodd" clip-rule="evenodd" d="M28.9042 62.7029C27.6562 63.5215 25.4252 64.141 23.89 63.1343C23.7685 63.2228 23.1279 63.61 23.0506 63.6764C22.9401 63.787 22.7855 63.8645 22.6861 63.7096C22.6309 63.6432 22.5978 63.5326 22.7082 63.4109C23.0285 63.1896 23.3819 63.0458 23.7243 62.8246C24.895 60.3908 26.1541 58.7425 28.0869 57.5256C30.2958 56.1096 32.1402 56.0875 33.322 56.0875C33.4877 56.0875 33.6533 56.0985 33.819 56.0985C33.5318 58.4991 30.5609 61.6741 28.9042 62.7029Z" fill="currentColor"/>
<path fill-rule="evenodd" clip-rule="evenodd" d="M22.7745 60.8223C22.7855 60.9771 22.8628 61.663 22.9733 62.0834C23.0064 62.2051 23.0174 62.3821 23.1831 62.3157C23.2494 62.3046 23.3157 62.1608 23.3157 62.0945C23.2383 61.6851 23.1721 61.2205 23.1389 60.8112C23.901 60.3244 24.4974 58.7314 24.6189 56.7733C24.4864 53.8196 23.161 51.1425 22.1008 48.3547C22.0676 48.233 22.0234 48.1002 21.9793 47.9675C21.9351 48.0339 21.913 48.1002 21.8688 48.1666C21.162 49.6269 20.6208 51.6735 20.5766 53.5209C20.5324 54.7267 20.7091 56.1317 21.0626 57.4371C21.4381 58.7757 21.9903 59.8266 22.7745 60.8223Z" fill="currentColor"/>
<path fill-rule="evenodd" clip-rule="evenodd" d="M22.1449 72.8031C20.7091 73.0907 18.7653 73.0243 17.5504 71.4755C17.2412 71.5198 16.7442 71.5972 16.4239 71.6194C16.3355 71.6304 16.2692 71.564 16.2361 71.4534C16.214 71.376 16.2361 71.2764 16.3797 71.199C16.7442 71.1215 17.1086 71.1215 17.4952 71.0552C19.1077 69.1635 20.6318 68.1014 22.8297 67.7032C25.3699 67.2386 27.5236 67.8913 28.6722 68.367C28.8269 68.4223 28.9925 68.4886 29.1361 68.5661C28.7275 69.4843 27.5347 70.4246 26.7836 70.8782C25.3478 71.8295 23.8789 72.5154 22.1449 72.8031Z" fill="currentColor"/>
<path fill-rule="evenodd" clip-rule="evenodd" d="M17.0092 68.8095C16.9871 68.9754 16.965 69.6392 16.965 70.0817C16.9761 70.2033 16.943 70.3693 17.1086 70.3803C17.1859 70.3803 17.2743 70.2808 17.2743 70.2033C17.3074 69.794 17.2853 69.3515 17.3516 68.9311C18.202 68.6656 19.3286 67.3713 19.8477 65.5902C20.4441 62.7361 19.7924 59.7934 19.4832 56.7733C19.4611 56.6406 19.4722 56.5078 19.4611 56.364C19.4059 56.4193 19.3396 56.4746 19.2844 56.53C18.2462 57.6694 17.208 59.4284 16.711 61.1541C16.3686 62.2825 16.1919 63.6764 16.1919 65.015C16.214 66.4199 16.5012 67.6036 17.0092 68.8095Z" fill="currentColor"/>
<path fill-rule="evenodd" clip-rule="evenodd" d="M8.96881 74.6173C8.89149 74.739 8.7921 75.2921 8.68165 75.7125C8.64852 75.8121 8.58225 75.967 8.73687 76.0223C8.81419 76.0555 8.91359 75.9891 8.93567 75.9227C9.07925 75.5687 9.07925 75.1926 9.25596 74.8386C10.0843 75.0377 11.5201 73.9868 12.4589 72.615C13.7621 70.2476 13.9057 67.4709 14.4138 64.6499C14.4248 64.5172 14.469 64.3955 14.4911 64.2627C14.4248 64.2738 14.3585 64.318 14.2923 64.3402C13.0442 64.9707 11.6195 66.0881 10.7028 67.4598C10.0733 68.3448 9.4879 69.5728 9.15656 70.8007C8.81418 72.0951 8.80314 73.323 8.96881 74.6173Z" fill="currentColor"/>
<path fill-rule="evenodd" clip-rule="evenodd" d="M13.486 79.8831C12.0171 79.684 10.1174 79.0092 9.27806 77.1285C8.97985 77.04 8.46076 76.9847 8.15151 76.8962C8.06316 76.8852 8.01898 76.7856 8.00793 76.6639C8.00793 76.5975 8.05211 76.498 8.20673 76.4759C8.5712 76.5312 8.93568 76.6418 9.34432 76.686C11.4759 75.4249 13.1989 74.8496 15.4409 75.1705C18.0143 75.5355 19.8918 76.8299 20.8969 77.6596C21.0405 77.7812 21.1841 77.8919 21.3166 78.0135C20.6981 78.7769 19.3065 79.2858 18.4781 79.507C16.8546 79.9606 15.2642 80.1376 13.486 79.8831Z" fill="currentColor"/>
</g>
</g>
</svg>
